<?xml version="1.0" encoding="iso-8859-1"?>
<!-- Generator: Adobe Illustrator 16.0.0, SVG Export Plug-In . SVG Version: 6.00 Build 0)  -->
<!DOCTYPE svg PUBLIC "-//W3C//DTD SVG 1.1//EN" "http://www.w3.org/Graphics/SVG/1.1/DTD/svg11.dtd">
<svg version="1.1" id="&#x5716;&#x5C64;_1" xmlns="http://www.w3.org/2000/svg" xmlns:xlink="http://www.w3.org/1999/xlink" x="0px"
	 y="0px" width="1920px" height="329px" viewBox="0 0 1920 329" style="enable-background:new 0 0 1920 329;" xml:space="preserve">
<path style="fill:#8CC63F;" d="M1925.909,10.58c-52.014,0-99.501,18.912-135.685,50.072c-7.007-0.707-14.117-1.072-21.315-1.072
	c-60.464,0-114.818,25.546-152.397,66.194c-19.447-5.97-40.14-9.194-61.603-9.194c-28.673,0-55.969,5.752-80.758,16.127
	c-30.933-32.67-75.142-53.126-124.24-53.126c-56.22,0-106.032,26.817-136.835,68.088c-23.34-15.71-51.326-24.867-81.424-24.867
	c-44.295,0-84.027,19.823-111.079,51.206c-17.507-11.076-38.183-17.483-60.337-17.483c-44.223,0-82.569,25.502-101.528,62.794
	c-15.984-5.16-33.191-7.979-51.127-7.979c-22.369,0-43.612,4.37-62.751,12.22c-21.157-37.477-59.144-62.47-102.494-62.47
	c-11.015,0-21.681,1.622-31.815,4.645c-20.664-37.617-54.584-62.151-92.926-62.151c-9.945,0-19.592,1.655-28.788,4.756
	c-29.335-27.758-68.685-44.75-111.95-44.75c-60.44,0-113.245,33.149-141.763,82.51c-11.786-2.939-24.18-4.518-36.976-4.518
	c-46.66,0-88.019,20.862-113.681,52.998C69.167,188.406,52.482,185,35,185c-72.901,0-132,59.099-132,132s59.099,132,132,132
	c45.38,0,85.408-22.903,109.166-57.778c16.621,6.34,34.84,9.847,53.952,9.847c34.393,0,65.904-11.337,90.376-30.165
	c25.513,16.563,55.833,26.166,88.363,26.166c28.931,0,56.109-7.604,79.717-20.937c17.644,14.521,38.573,22.936,61.021,22.936
	c15.227,0,29.752-3.879,43.031-10.9c21.45,21.656,50.158,34.901,81.71,34.901c11.335,0,22.303-1.711,32.7-4.904
	c26.252,41.753,75.774,69.903,132.545,69.903c69.617,0,128.334-42.327,146.607-100.163c2.003,0.106,4.019,0.162,6.048,0.162
	c21.968,0,42.483-6.299,59.896-17.203c27.06,31.678,66.986,51.712,111.521,51.712c43.662,0,82.89-19.261,109.91-49.866
	c29.365,23.95,67.135,38.363,108.349,38.363c7.664,0,15.206-0.508,22.601-1.473c34.184,64.42,103.027,108.439,182.397,108.439
	c60.463,0,114.818-25.547,152.397-66.194c19.447,5.97,40.139,9.194,61.603,9.194c52.013,0,99.501-18.912,135.684-50.072
	c7.008,0.707,14.118,1.072,21.316,1.072c113.413,0,205.353-89.869,205.353-200.729C2131.262,100.448,2039.322,10.58,1925.909,10.58z
	"/>
</svg>
